<svg xmlns="http://www.w3.org/2000/svg" width="1330.884" height="875.922" viewBox="0 0 1330.884 875.922">
  <g id="Group_1" data-name="Group 1" transform="translate(-241.501 -87.009)">
    <path id="Path_1" data-name="Path 1" d="M537.692,87.692s185.769,73.846,369.231,73.846,364.615-73.846,364.615-73.846,24.231,102.692,99.231,170.769S1571.538,360,1571.538,360s-83.654,110.769-87.692,219.231,71.538,214.615,71.538,214.615-120.577-9.808-212.308,32.308-154.615,136.154-154.615,136.154-151.154-64.615-313.846-64.615-336.923,64.615-336.923,64.615-53.077-77.885-126.923-120-168.462-48.462-168.462-48.462,55.385-124.615,55.385-233.077S242.308,360,242.308,360,360,340.385,433.846,272.308,537.692,87.692,537.692,87.692" fill="none" stroke="#707070" stroke-width="1"/>
    <path id="Path_2" data-name="Path 2" d="M423.846,87.692s114.171,45.385,226.923,45.385S874.856,87.692,874.856,87.692s14.892,63.113,60.986,104.952,123.389,62.4,123.389,62.4-51.412,68.077-53.894,134.736,43.966,131.9,43.966,131.9-74.1-6.028-130.481,19.856S823.8,625.216,823.8,625.216,730.9,585.5,630.913,585.5s-207.067,39.711-207.067,39.711-32.62-47.867-78-73.75-103.534-29.784-103.534-29.784,34.038-76.587,34.038-143.245-34.038-123.389-34.038-123.389,72.332-12.055,117.716-53.894S423.846,87.692,423.846,87.692" transform="translate(256 168.091)" fill="none" stroke="#707070" stroke-width="1"/>
    <path id="Path_3" data-name="Path 3" d="M359.744,87.692s73.856,29.359,146.795,29.359S651.5,87.692,651.5,87.692s9.633,40.827,39.451,67.893,79.82,40.369,79.82,40.369-33.258,44.038-34.864,87.159,28.442,85.325,28.442,85.325-47.938-3.9-84.407,12.845-61.47,54.131-61.47,54.131-60.094-25.689-124.776-25.689-133.95,25.689-133.95,25.689-21.1-30.965-50.461-47.708-66.975-19.267-66.975-19.267,22.019-49.543,22.019-92.664-22.019-79.82-22.019-79.82,46.791-7.8,76.15-34.864,41.286-73.4,41.286-73.4" transform="translate(400 278.895)" fill="none" stroke="#707070" stroke-width="1"/>
    <line id="Line_1" data-name="Line 1" x2="142" y2="168" transform="translate(537.5 87.5)" fill="none" stroke="#707070" stroke-width="1"/>
    <line id="Line_2" data-name="Line 2" x1="80" y1="111" transform="translate(679.5 255.5)" fill="none" stroke="#707070" stroke-width="1"/>
    <line id="Line_3" data-name="Line 3" y1="110" x2="79" transform="translate(1051.5 256.5)" fill="none" stroke="#707070" stroke-width="1"/>
    <line id="Line_4" data-name="Line 4" x1="141" y2="169" transform="translate(1130.5 87.5)" fill="none" stroke="#707070" stroke-width="1"/>
    <line id="Line_5" data-name="Line 5" x1="257" y2="63" transform="translate(1314.5 360.5)" fill="none" stroke="#707070" stroke-width="1"/>
    <line id="Line_6" data-name="Line 6" y1="52" x2="144" transform="translate(1170.5 423.5)" fill="none" stroke="#707070" stroke-width="1"/>
    <line id="Line_7" data-name="Line 7" x1="250" y1="104" transform="translate(1304.5 689.5)" fill="none" stroke="#707070" stroke-width="1"/>
    <line id="Line_8" data-name="Line 8" x2="140" y2="42" transform="translate(1164.5 647.5)" fill="none" stroke="#707070" stroke-width="1"/>
    <line id="Line_9" data-name="Line 9" x1="109" y1="170" transform="translate(1079.5 792.5)" fill="none" stroke="#707070" stroke-width="1"/>
    <line id="Line_10" data-name="Line 10" x2="62" y2="79" transform="translate(1018.5 714.5)" fill="none" stroke="#707070" stroke-width="1"/>
    <line id="Line_11" data-name="Line 11" x1="80" y2="79" transform="translate(679.5 714.5)" fill="none" stroke="#707070" stroke-width="1"/>
    <line id="Line_12" data-name="Line 12" y1="169" x2="142" transform="translate(537.5 793.5)" fill="none" stroke="#707070" stroke-width="1"/>
    <line id="Line_13" data-name="Line 13" x1="256" y2="104" transform="translate(242.5 689.5)" fill="none" stroke="#707070" stroke-width="1"/>
    <line id="Line_14" data-name="Line 14" x1="144" y2="42" transform="translate(498.5 647.5)" fill="none" stroke="#707070" stroke-width="1"/>
    <line id="Line_15" data-name="Line 15" x1="145" y1="52" transform="translate(498.5 423.5)" fill="none" stroke="#707070" stroke-width="1"/>
    <line id="Line_16" data-name="Line 16" x2="256" y2="63" transform="translate(242.5 360.5)" fill="none" stroke="#707070" stroke-width="1"/>
  </g>
</svg>
